<?xml version="1.0" encoding="UTF-8"?>
<svg id="Layer_2" data-name="Layer 2" xmlns="http://www.w3.org/2000/svg" viewBox="0 0 3975.36 398.41">
  <defs>
    <style>
      .cls-1 {
        fill: #f2f2f2;
        stroke: #000;
        stroke-miterlimit: 10;
        stroke-width: 10px;
      }
    </style>
  </defs>
  <g id="Layer_3" data-name="Layer 3">
    <g>
      <path class="cls-1" d="m271.49,385.42c0-21.32.67-25.32.67-28.65h-2c-16.66,17.99-51.3,35.31-95.94,35.31-93.94,0-169.22-67.96-169.22-193.21S78.95,5,186.21,5c83.28,0,139.24,39.31,163.23,113.26l-91.27,23.98c-11.99-25.32-35.98-45.3-70.62-45.3-51.97,0-80.61,33.31-80.61,97.94,0,70.62,30.65,105.93,91.27,105.93,28.65,0,61.29-11.33,72.62-21.32v-23.32h-81.28v-87.94h170.55v217.19h-88.61Z"/>
      <path class="cls-1" d="m512.66,320.13l-16.66,65.29h-100.6L508.66,12.33h131.91l113.26,373.09h-103.27l-17.32-65.29h-120.59Zm83.94-139.24c-15.32-59.29-21.99-87.94-22.65-89.28h-2l-23.98,92.61-13.32,50.63h76.62l-14.66-53.96Z"/>
      <path class="cls-1" d="m1071.63,243.51l.67-80.61h-2.66l-55.3,134.58h-63.96l-57.3-139.24h-2.67l.67,81.28v145.9h-95.94V12.33h122.59l43.3,93.27c15.32,32.65,25.98,58.63,26.65,58.63h2.67c.67,0,11.99-25.98,26.65-59.29l42.64-92.61h112.59v373.09h-100.6v-141.91Z"/>
      <path class="cls-1" d="m1238.84,12.33h267.16v93.94h-167.22v49.3h115.26v82.61h-115.26v53.3h170.55v93.94h-270.49V12.33Z"/>
      <path class="cls-1" d="m1707.87,264.16h-40.64v121.25h-99.94V12.33h145.9c93.94,0,145.24,50.63,145.24,127.25,0,53.96-25.32,87.94-57.96,103.27l75.28,142.57h-107.26l-60.63-121.25Zm6.66-77.28c27.98,0,41.97-15.32,41.97-41.31s-13.33-41.31-41.97-41.31h-47.3v82.61h47.3Z"/>
      <path class="cls-1" d="m1991.01,267.49c3.33,20.65,18.66,45.3,60.63,45.3,26.65,0,42.64-10.66,42.64-32.64,0-30.65-31.31-33.31-91.27-49.97-43.3-12.66-95.94-36.64-95.94-112.59s51.97-112.59,137.91-112.59,133.25,33.31,147.24,94.6l-87.28,23.32c-6-23.32-24.65-37.31-54.63-37.31-25.98,0-41.31,10.66-41.31,29.31,0,24.65,24.65,29.31,80.61,45.3,45.3,12.66,106.6,37.31,106.6,117.92s-61.96,115.26-143.91,115.26c-65.29,0-137.24-21.99-151.9-101.93l90.61-23.98Z"/>
      <path class="cls-1" d="m2647.24,385.42c0-21.32.67-25.32.67-28.65h-2c-16.65,17.99-51.3,35.31-95.94,35.31-93.94,0-169.22-67.96-169.22-193.21S2454.7,5,2561.96,5c83.28,0,139.24,39.31,163.23,113.26l-91.27,23.98c-11.99-25.32-35.98-45.3-70.62-45.3-51.97,0-80.61,33.31-80.61,97.94,0,70.62,30.65,105.93,91.27,105.93,28.65,0,61.29-11.33,72.62-21.32v-23.32h-81.28v-87.94h170.55v217.19h-88.61Z"/>
      <path class="cls-1" d="m3113.59,220.86c0,119.92-63.29,172.55-159.89,172.55s-160.56-52.63-160.56-172.55V12.33h101.27v217.19c0,49.3,19.99,71.29,59.96,71.29s60.63-21.99,60.63-71.29V12.33h98.6v208.53Z"/>
      <path class="cls-1" d="m3176.88,12.33h100.6v373.09h-100.6V12.33Z"/>
      <path class="cls-1" d="m3343.44,12.33h100.6v279.15h147.24v93.94h-247.84V12.33Z"/>
      <path class="cls-1" d="m3782.48,12.33c112.59,0,187.88,69.29,187.88,187.88s-73.95,185.21-187.21,185.21h-140.57V12.33h139.91Zm-1.33,279.15c57.3,0,87.28-22.65,87.28-90.61s-29.98-94.6-86.61-94.6h-38.64v185.21h37.97Z"/>
    </g>
  </g>
</svg>